<svg version="1.1" preserveAspectRatio="none" xmlns="http://www.w3.org/2000/svg" width="500" height="500" viewBox="0 0 500 500"><rect width="100%" height="100%" fill="#FFFFFF" fill-opacity="1"/><svg viewBox="84.1731 275.8082 527.2335 124" width="333" height="78.31824040012631" x="83.5px" y="210.8409px" xmlns="http://www.w3.org/2000/svg" xmlns:xlink="http://www.w3.org/1999/xlink" preserveAspectRatio="none"><defs></defs><style>.companyName {fill:#4D4D4D;fill-opacity:1;}.icon1 {fill:#FF834F;fill-opacity:1;}.icon2 {fill:#FF4949;fill-opacity:1;}.icon3 {fill:#FFAE78;fill-opacity:1;}.icon3-str {stroke:#FFAE78;stroke-opacity:1;}.shapeStroke-str {stroke:#313131;stroke-opacity:1;}</style><g opacity="1" transform="rotate(0 84.1731 287.8082)">
<svg width="89.8629" height="100" x="84.1731" y="287.8082" version="1.1" preserveAspectRatio="none" viewBox="9.561500549316406 5 80.87654113769531 90">
  <g transform="matrix(1 0 0 1 0 0)" class="icon1"><path d="m 17.933594,49.999999 c 0,2.311891 -1.874159,4.186049 -4.186049,4.186049 -2.311889,0 -4.186045,-1.874158 -4.186045,-4.186049 0,-2.311889 1.874156,-4.186048 4.186045,-4.186048 2.31189,0 4.186049,1.874159 4.186049,4.186048 z" color="#000"></path><path d="m 36.0597,81.395348 c 0,2.311891 -1.874159,4.186049 -4.186049,4.186049 -2.311887,0 -4.186044,-1.874158 -4.186044,-4.186049 0,-2.31189 1.874156,-4.186047 4.186044,-4.186047 2.311893,0 4.186049,1.874157 4.186049,4.186047 z" color="#000"></path><path d="m 72.311923,81.395348 c 0,2.311891 -1.874157,4.186049 -4.186048,4.186049 -2.311886,0 -4.186044,-1.874158 -4.186044,-4.186049 0,-2.31189 1.874155,-4.186047 4.186044,-4.186047 2.311893,0 4.186048,1.874157 4.186048,4.186047 z" color="#000"></path><path d="m 90.438041,49.999999 c 0,2.311891 -1.874159,4.186049 -4.186048,4.186049 -2.311889,0 -4.186045,-1.874158 -4.186045,-4.186049 0,-2.311889 1.874156,-4.186048 4.186045,-4.186048 2.311889,0 4.186048,1.874159 4.186048,4.186048 z" color="#000"></path><path d="m 72.311928,18.604651 c 0,2.311891 -1.874159,4.186048 -4.186048,4.186048 -2.311889,0 -4.186045,-1.874157 -4.186045,-4.186048 0,-2.31189 1.874156,-4.186049 4.186045,-4.186049 2.311889,0 4.186048,1.874159 4.186048,4.186049 z" color="#000"></path><path d="m 36.059704,18.604651 c 0,2.311891 -1.874158,4.186048 -4.186049,4.186048 -2.311888,0 -4.186045,-1.874157 -4.186045,-4.186048 0,-2.31189 1.874157,-4.186049 4.186045,-4.186049 2.311891,0 4.186049,1.874159 4.186049,4.186049 z" color="#000"></path><path d="m 56.278834,49.999999 c 0,3.467838 -2.811236,6.279071 -6.279072,6.279071 -3.467834,0 -6.279068,-2.811233 -6.279068,-6.279071 0,-3.467836 2.811234,-6.279069 6.279068,-6.279069 3.467836,0 6.279072,2.811233 6.279072,6.279069 z" color="#000"></path><path d="m 73.358437,60.465116 c 0,2.889863 -2.342696,5.232558 -5.232557,5.232558 -2.889863,0 -5.232557,-2.342695 -5.232557,-5.232558 0,-2.889862 2.342694,-5.232558 5.232557,-5.232558 2.889861,0 5.232557,2.342696 5.232557,5.232558 z" color="#000"></path><path d="m 55.232324,70.930233 c 0,2.889861 -2.342696,5.232558 -5.232558,5.232558 -2.889862,0 -5.232556,-2.342697 -5.232556,-5.232558 0,-2.889863 2.342694,-5.232559 5.232556,-5.232559 2.889862,0 5.232558,2.342696 5.232558,5.232559 z" color="#000"></path><path d="m 37.106214,60.465116 c 0,2.889863 -2.342696,5.232558 -5.232559,5.232558 -2.889863,0 -5.232556,-2.342695 -5.232556,-5.232558 0,-2.889862 2.342693,-5.232558 5.232556,-5.232558 2.889863,0 5.232559,2.342696 5.232559,5.232558 z" color="#000"></path><path d="m 73.358435,39.534884 c 0,2.889862 -2.342694,5.232558 -5.232558,5.232558 -2.889863,0 -5.232556,-2.342696 -5.232556,-5.232558 0,-2.889863 2.342693,-5.232558 5.232556,-5.232558 2.889864,0 5.232558,2.342695 5.232558,5.232558 z" color="#000"></path><path d="m 55.232326,29.069767 c 0,2.889863 -2.342694,5.232559 -5.232558,5.232559 -2.889864,0 -5.232558,-2.342696 -5.232558,-5.232559 0,-2.889863 2.342694,-5.232558 5.232558,-5.232558 2.889864,0 5.232558,2.342695 5.232558,5.232558 z" color="#000"></path><path d="m 37.106211,39.534884 c 0,2.889862 -2.342693,5.232558 -5.232558,5.232558 -2.889858,0 -5.232551,-2.342696 -5.232551,-5.232558 0,-2.889863 2.342693,-5.232558 5.232551,-5.232558 2.889865,0 5.232558,2.342695 5.232558,5.232558 z" color="#000"></path><path d="m 16.887078,29.069767 c 0,1.733917 -1.405616,3.139536 -3.139536,3.139536 -1.733916,0 -3.139535,-1.405619 -3.139535,-3.139536 0,-1.733919 1.405619,-3.139535 3.139535,-3.139535 1.73392,0 3.139536,1.405619 3.139536,3.139535 z" color="#000"></path><path d="m 53.1393,8.1395352 c 0,1.7339167 -1.405616,3.1395338 -3.139536,3.1395338 -1.733916,0 -3.139535,-1.4056171 -3.139535,-3.1395338 C 46.860229,6.4056161 48.265848,5 49.999764,5 51.733684,5 53.1393,6.4056173 53.1393,8.1395352 z" color="#000"></path><path d="m 16.887078,70.930233 c 0,1.733916 -1.405616,3.139535 -3.139536,3.139535 -1.733916,0 -3.139535,-1.405619 -3.139535,-3.139535 0,-1.73392 1.405619,-3.139536 3.139535,-3.139536 1.73392,0 3.139536,1.405619 3.139536,3.139536 z" color="#000"></path><path d="M 53.1393,91.860465 C 53.1393,93.594381 51.733684,95 49.999764,95 c -1.733916,0 -3.139535,-1.405619 -3.139535,-3.139535 0,-1.733919 1.405619,-3.139535 3.139535,-3.139535 1.73392,0 3.139536,1.405618 3.139536,3.139535 z" color="#000"></path><path d="m 89.391525,70.930233 c 0,1.733916 -1.405616,3.139535 -3.139535,3.139535 -1.733917,0 -3.139535,-1.405619 -3.139535,-3.139535 0,-1.73392 1.405618,-3.139536 3.139535,-3.139536 1.733919,0 3.139535,1.405619 3.139535,3.139536 z" color="#000"></path><path d="m 89.391527,29.069767 c 0,1.733917 -1.405615,3.139536 -3.139534,3.139536 -1.733917,0 -3.139536,-1.405619 -3.139536,-3.139536 0,-1.733919 1.405619,-3.139535 3.139536,-3.139535 1.733919,0 3.139534,1.405619 3.139534,3.139535 z" color="#000"></path></g>
</svg>
</g><g opacity="1" transform="rotate(0 212.036 302.8082)">
<svg width="399.3706" height="70" x="212.036" y="302.8082" version="1.1" preserveAspectRatio="none" viewBox="1.12 -29.68 213.60000000000002 37.44">
  <g transform="matrix(1 0 0 1 0 0)" class="companyName"><path id="id-D6z1nYkh9" d="M12.52 0.48Q9.20 0.48 6.10-0.42Q3-1.32 1.12-2.76L1.12-2.76L3.32-7.64Q5.12-6.32 7.60-5.52Q10.08-4.72 12.56-4.72L12.56-4.72Q15.32-4.72 16.64-5.54Q17.96-6.36 17.96-7.72L17.96-7.72Q17.96-8.72 17.18-9.38Q16.40-10.04 15.18-10.44Q13.96-10.84 11.88-11.32L11.88-11.32Q8.68-12.08 6.64-12.84Q4.60-13.60 3.14-15.28Q1.68-16.96 1.68-19.76L1.68-19.76Q1.68-22.20 3-24.18Q4.32-26.16 6.98-27.32Q9.64-28.48 13.48-28.48L13.48-28.48Q16.16-28.48 18.72-27.84Q21.28-27.20 23.20-26L23.20-26L21.20-21.08Q17.32-23.28 13.44-23.28L13.44-23.28Q10.72-23.28 9.42-22.40Q8.12-21.52 8.12-20.08L8.12-20.08Q8.12-18.64 9.62-17.94Q11.12-17.24 14.20-16.56L14.20-16.56Q17.40-15.80 19.44-15.04Q21.48-14.28 22.94-12.64Q24.40-11 24.40-8.20L24.40-8.20Q24.40-5.80 23.06-3.82Q21.72-1.84 19.04-0.68Q16.36 0.48 12.52 0.48L12.52 0.48Z M41.48-21.84Q45.48-21.84 47.94-19.44Q50.40-17.04 50.40-12.32L50.40-12.32L50.40 0L44.16 0L44.16-11.36Q44.16-13.92 43.04-15.18Q41.92-16.44 39.80-16.44L39.80-16.44Q37.44-16.44 36.04-14.98Q34.64-13.52 34.64-10.64L34.64-10.64L34.64 0L28.40 0L28.40-29.68L34.64-29.68L34.64-19.28Q35.88-20.52 37.64-21.18Q39.40-21.84 41.48-21.84L41.48-21.84Z M66.52 0.32Q63.12 0.32 60.42-1.10Q57.72-2.52 56.20-5.04Q54.68-7.56 54.68-10.76L54.68-10.76Q54.68-13.96 56.20-16.48Q57.72-19 60.42-20.42Q63.12-21.84 66.52-21.84L66.52-21.84Q69.92-21.84 72.60-20.42Q75.28-19 76.80-16.48Q78.32-13.96 78.32-10.76L78.32-10.76Q78.32-7.56 76.80-5.04Q75.28-2.52 72.60-1.10Q69.92 0.32 66.52 0.32L66.52 0.32ZM66.52-4.80Q68.92-4.80 70.46-6.42Q72-8.04 72-10.76L72-10.76Q72-13.48 70.46-15.10Q68.92-16.72 66.52-16.72L66.52-16.72Q64.12-16.72 62.56-15.10Q61-13.48 61-10.76L61-10.76Q61-8.04 62.56-6.42Q64.12-4.80 66.52-4.80L66.52-4.80Z M95.20-21.84Q98.20-21.84 100.66-20.46Q103.12-19.08 104.52-16.58Q105.92-14.08 105.92-10.76L105.92-10.76Q105.92-7.44 104.52-4.94Q103.12-2.44 100.66-1.06Q98.20 0.32 95.20 0.32L95.20 0.32Q91.08 0.32 88.72-2.28L88.72-2.28L88.72 7.76L82.48 7.76L82.48-21.52L88.44-21.52L88.44-19.04Q90.76-21.84 95.20-21.84L95.20-21.84ZM94.12-4.80Q96.52-4.80 98.06-6.42Q99.60-8.04 99.60-10.76L99.60-10.76Q99.60-13.48 98.06-15.10Q96.52-16.72 94.12-16.72L94.12-16.72Q91.72-16.72 90.18-15.10Q88.64-13.48 88.64-10.76L88.64-10.76Q88.64-8.04 90.18-6.42Q91.72-4.80 94.12-4.80L94.12-4.80Z M146.76-3.48L143.36 0.48L140.00-2.64Q136.00 0.48 130.64 0.48L130.64 0.48Q127.60 0.48 125.16-0.50Q122.72-1.48 121.34-3.24Q119.96-5 119.96-7.20L119.96-7.20Q119.96-9.80 121.42-11.78Q122.88-13.76 126.12-15.56L126.12-15.56Q124.60-17.12 123.92-18.54Q123.24-19.96 123.24-21.48L123.24-21.48Q123.24-23.52 124.32-25.08Q125.40-26.64 127.38-27.50Q129.36-28.36 131.96-28.36L131.96-28.36Q135.60-28.36 137.80-26.62Q140.00-24.88 140.00-21.92L140.00-21.92Q140.00-19.76 138.70-18.08Q137.40-16.40 134.52-14.84L134.52-14.84L139.64-10.08Q140.56-12 141.04-14.44L141.04-14.44L146.04-12.88Q145.24-9.16 143.48-6.52L143.48-6.52L146.76-3.48ZM131.96-24.12Q130.56-24.12 129.74-23.40Q128.92-22.68 128.92-21.56L128.92-21.56Q128.92-20.72 129.36-19.98Q129.80-19.24 131.08-18L131.08-18Q133.12-19.08 133.92-19.94Q134.72-20.80 134.72-21.80L134.72-21.80Q134.72-22.84 134.00-23.48Q133.28-24.12 131.96-24.12L131.96-24.12ZM131.08-4.40Q134.00-4.40 136.32-6.04L136.32-6.04L129.56-12.36Q127.68-11.28 126.88-10.24Q126.08-9.20 126.08-7.88L126.08-7.88Q126.08-6.32 127.44-5.36Q128.80-4.40 131.08-4.40L131.08-4.40Z M181.20-6.24L181.20-14.44L187.12-14.44L187.12-3.08Q184.84-1.36 181.84-0.44Q178.84 0.48 175.80 0.48L175.80 0.48Q171.44 0.48 167.96-1.38Q164.48-3.24 162.50-6.54Q160.52-9.84 160.52-14L160.52-14Q160.52-18.16 162.50-21.46Q164.48-24.76 168.00-26.62Q171.52-28.48 175.92-28.48L175.92-28.48Q179.60-28.48 182.60-27.24Q185.60-26 187.64-23.64L187.64-23.64L183.48-19.80Q180.48-22.96 176.24-22.96L176.24-22.96Q173.56-22.96 171.48-21.84Q169.40-20.72 168.24-18.68Q167.08-16.64 167.08-14L167.08-14Q167.08-11.40 168.24-9.36Q169.40-7.32 171.46-6.18Q173.52-5.04 176.16-5.04L176.16-5.04Q178.96-5.04 181.20-6.24L181.20-6.24Z M202.92 0.32Q199.52 0.32 196.82-1.10Q194.12-2.52 192.60-5.04Q191.08-7.56 191.08-10.76L191.08-10.76Q191.08-13.96 192.60-16.48Q194.12-19 196.82-20.42Q199.52-21.84 202.92-21.84L202.92-21.84Q206.32-21.84 209.00-20.42Q211.68-19 213.20-16.48Q214.72-13.96 214.72-10.76L214.72-10.76Q214.72-7.56 213.20-5.04Q211.68-2.52 209.00-1.10Q206.32 0.32 202.92 0.32L202.92 0.32ZM202.92-4.80Q205.32-4.80 206.86-6.42Q208.40-8.04 208.40-10.76L208.40-10.76Q208.40-13.48 206.86-15.10Q205.32-16.72 202.92-16.72L202.92-16.72Q200.52-16.72 198.96-15.10Q197.40-13.48 197.40-10.76L197.40-10.76Q197.40-8.04 198.96-6.42Q200.52-4.80 202.92-4.80L202.92-4.80Z"/></g>
</svg>
</g><g opacity="1" transform="rotate(0 192.036 275.8082)">
<svg width="4" height="124" x="192.036" y="275.8082" version="1.1" preserveAspectRatio="none" viewBox="0 0 4 124">
  <defs><rect x="0" y="0" width="4" height="124" rx="0px" ry="0px" id="id-tBXipXk0b1739751419736"></rect></defs><use class="companyName shapeStroke-str" style="stroke-width:0;" xlink:href="#id-tBXipXk0b1739751419736"></use>
</svg>
</g></svg></svg>